# xmcd
#
# Track frame offsets:
#	150
#	15723
#	35946
#	53619
#	66942
#	84240
#	99663
#	117111
#	134109
#	150807
#	167955
#	186303
#	203001
#	217374
#	231522
#	249945
#	267543
#	282141
#	299139
#	315087
#
# Disc length: 4392 seconds
#
# Revision: 2
# Processed by: cddbd v1.5.2PL0 Copyright (c) Steve Scherf et al.
# Submitted via: audiograbber 1.83.01
#
DISCID=2f112614
DTITLE=Various Artist - CDX Vol 537
DYEAR=2011
DGENRE=Country
TTITLE0=Tim McGraw - Better Than I Used To Be
TTITLE1=Faith Hill - Come Home
TTITLE2=Lady Antebellum - Dancin' Away With My Heart
TTITLE3=Ronnie Dunn - Let The Cowboy Rock
TTITLE4=Alison Krauss and Union Station - My Love Follows You Where You Go
TTITLE5=Josh Turner - Time Is Love
TTITLE6=Canaan Smith - We Got Us
TTITLE7=Jana Kramer - Why Ya Wanna
TTITLE8=Ira Dean - Somethin' Bout A Sunday
TTITLE9=Kentucky Headhunters - Great Acoustics
TTITLE10=Shooter Jennings - The Deed And The Dollar
TTITLE11=One Night Rodeo - We Could Go To Jail
TTITLE12=Kelly Parkes - Don't Make Me
TTITLE13=Israel David - Back In Waco
TTITLE14=Tim Culpepper - Ghost
TTITLE15=Susan Cattaneo - Little Big Sky
TTITLE16=Andy Budd - Old Freight
TTITLE17=Kaleb McIntire - Redneck In All Of Us
TTITLE18=Lori Smith - What's In It For Me
TTITLE19=Keith Bryant - Ridin' With The Legend
EXTD=December 28th, 2011
EXTT0=
EXTT1=
EXTT2=
EXTT3=
EXTT4=
EXTT5=
EXTT6=
EXTT7=
EXTT8=
EXTT9=
EXTT10=
EXTT11=
EXTT12=
EXTT13=
EXTT14=
EXTT15=
EXTT16=
EXTT17=
EXTT18=
EXTT19=
PLAYORDER=
